<mxfile host="app.diagrams.net" modified="2024-04-26T19:16:03.103Z" agent="Mozilla/5.0 (Linux; Android 10; K) AppleWebKit/537.36 (KHTML, like Gecko) Chrome/124.0.0.0 Safari/537.36" version="24.3.1" etag="aCjC59u5sfFq86yJijW6" type="github">
  <diagram name="Page-1" id="mKr-M2R_KRVoBq0AWmKK">
    <mxGraphModel>
      <root>
        <mxCell id="0" />
        <mxCell id="1" parent="0" />
      </root>
    </mxGraphModel>
  </diagram>
</mxfile>
